<svg width="28" height="28" viewBox="0 0 28 28" fill="none" xmlns="http://www.w3.org/2000/svg">
<path d="M27.1797 3.28125H22.9951C22.614 1.41143 20.9571 0 18.9766 0C16.996 0 15.3391 1.41143 14.958 3.28125H0.820312C0.366898 3.28125 0 3.64815 0 4.10156C0 4.55498 0.366898 4.92188 0.820312 4.92188H14.958C15.3391 6.7917 16.996 8.20312 18.9766 8.20312C20.9571 8.20312 22.614 6.7917 22.9951 4.92188H27.1797C27.6331 4.92188 28 4.55498 28 4.10156C28 3.64815 27.6331 3.28125 27.1797 3.28125ZM27.1797 13.1797H13.0967C12.7156 11.3099 11.0587 9.89844 9.07812 9.89844C7.09756 9.89844 5.4407 11.3099 5.05958 13.1797H0.820312C0.366898 13.1797 0 13.5466 0 14C0 14.4534 0.366898 14.8203 0.820312 14.8203H5.05958C5.4407 16.6901 7.09756 18.1016 9.07812 18.1016C11.0587 18.1016 12.7156 16.6901 13.0967 14.8203H27.1797C27.6331 14.8203 28 14.4534 28 14C28 13.5466 27.6331 13.1797 27.1797 13.1797ZM27.1797 23.0781H22.9951C22.614 21.2083 20.9571 19.7969 18.9766 19.7969C16.996 19.7969 15.3391 21.2083 14.958 23.0781H0.820312C0.366898 23.0781 0 23.445 0 23.8984C0 24.3519 0.366898 24.7188 0.820312 24.7188H14.958C15.3391 26.5886 16.996 28 18.9766 28C20.9571 28 22.614 26.5886 22.9951 24.7188H27.1797C27.6331 24.7188 28 24.3519 28 23.8984C28 23.445 27.6331 23.0781 27.1797 23.0781Z" fill="white"/>
</svg>
