<svg width="190" height="262" viewBox="0 0 190 262" fill="none" xmlns="http://www.w3.org/2000/svg">
<path d="M116.683 196.495H67.6045C65.4257 196.495 63.5162 197.318 61.8803 198.953C60.243 200.592 59.4258 202.5 59.4258 204.684V253.813C59.4258 255.996 60.2459 257.908 61.8803 259.544C63.5162 261.178 65.4236 262 67.6045 262H116.683C118.862 262 120.776 261.18 122.406 259.544C124.046 257.908 124.864 255.996 124.864 253.813V204.684C124.864 202.5 124.048 200.592 122.406 198.953C120.776 197.314 118.862 196.495 116.683 196.495ZM181.102 49.4337C175.511 39.1256 168.288 30.4305 159.424 23.3328C150.567 16.238 140.608 10.572 129.568 6.34349C118.526 2.11641 107.552 0 96.6438 0C55.2028 0 23.5758 18.1493 1.76196 54.4487C0.672554 56.2217 0.296528 58.1317 0.636743 60.1792C0.979106 62.2239 2.03556 63.9303 3.80754 65.2946L37.3448 90.8829C39.1168 91.9727 40.8214 92.5182 42.458 92.5182C44.9126 92.5182 47.0241 91.4249 48.7982 89.2418C58.6121 76.9621 65.907 69.1159 70.6779 65.7025C76.5411 61.7465 83.9004 59.7691 92.7617 59.7691C101.077 59.7691 108.403 61.9529 114.745 66.3162C121.083 70.6838 124.25 75.7332 124.25 81.4645C124.25 87.8753 122.549 93.0631 119.139 97.0206C115.732 100.977 110.005 104.796 101.96 108.482C91.3293 113.257 81.5777 120.661 72.7206 130.691C63.8572 140.722 59.4286 151.4 59.4286 162.725V171.936C59.4286 174.531 60.1406 177.088 61.5745 179.613C63.007 182.139 64.7439 183.4 66.7902 183.4H115.868C118.049 183.4 119.956 182.345 121.593 180.223C123.226 178.114 124.047 175.895 124.047 173.579C124.047 170.169 125.922 165.592 129.667 159.864C133.417 154.133 138.085 149.693 143.679 146.554C148.992 143.553 153.147 141.134 156.149 139.289C159.154 137.45 163.071 134.475 167.912 130.384C172.751 126.289 176.5 122.229 179.155 118.205C181.815 114.18 184.202 108.959 186.315 102.544C188.432 96.1309 189.486 89.239 189.486 81.871C189.485 70.5447 186.688 59.7311 181.102 49.4337Z" fill="black"/>
</svg>
