<svg width="50" height="50" viewBox="0 0 50 50" fill="none" xmlns="http://www.w3.org/2000/svg">
<path d="M25.1191 15.9928C30.1145 15.9928 35.002 14.9697 38.881 13.1116C38.9101 13.0979 38.9615 13.0745 39.0344 13.0425C39.8902 12.6675 40.7902 12.1895 41.7096 11.6272C40.8956 5.57186 39.0865 1.95165 36.2048 0.590221C32.6785 -1.07569 28.7947 1.17733 26.4743 2.52352C26.0283 2.78211 25.4477 3.11903 25.1191 3.26737C24.7909 3.11893 24.2098 2.78172 23.7644 2.52352C21.4438 1.17733 17.56 -1.07608 14.0338 0.590221C11.1843 1.93641 9.38402 5.49168 8.55698 11.4239C9.32137 11.9493 10.1362 12.4615 10.7844 12.8277C14.7622 14.8686 19.8521 15.9927 25.1191 15.9927V15.9928Z" fill="white"/>
<path d="M8.05383 28.0404C12.6375 29.7486 18.6981 30.6893 25.119 30.6893C31.5405 30.6893 37.6011 29.7486 42.1848 28.0404C47.2242 26.162 50 23.4959 50 20.5338C50 18.9 49.1392 16.4921 45.0376 14.2991C44.6766 14.1065 44.3081 13.9266 43.9329 13.7596C42.7105 14.5398 41.5048 15.1958 40.3606 15.6975C40.3342 15.7093 40.3133 15.7185 40.2979 15.7249C35.925 17.8181 30.6768 18.9244 25.1191 18.9244C19.3232 18.9244 13.6884 17.667 9.25301 15.3839C9.16055 15.3363 7.86328 14.5897 6.52723 13.6624C6.0754 13.8562 5.63292 14.0687 5.20108 14.2991C1.09942 16.4924 0.238607 18.8999 0.238607 20.5338C0.238607 23.4963 3.01443 26.162 8.05383 28.0404ZM48.4356 37.5058H46.5718C45.1195 34.2365 41.6742 31.9321 37.665 31.9321C33.6338 31.9321 30.1736 34.2614 28.7349 37.5584C26.3953 36.4342 23.5872 36.4383 21.2484 37.5843C19.8166 34.2736 16.3487 31.9321 12.3068 31.9321C8.29775 31.9321 4.8525 34.2365 3.40001 37.5058H1.56434C0.700496 37.5058 0 38.1618 0 38.9713C0 39.7809 0.700392 40.4369 1.56444 40.4369H2.68086C2.66966 40.6131 2.66399 40.7896 2.66387 40.966C2.66387 45.9473 6.98985 50 12.3068 50C17.6244 50 21.9499 45.9473 21.9499 40.966C21.9499 40.8562 21.9471 40.7471 21.943 40.6384C23.7261 39.3311 26.2385 39.322 28.0309 40.5915C28.025 40.7163 28.0221 40.8412 28.0219 40.966C28.0219 45.9473 32.3475 50 37.665 50C42.9821 50 47.3077 45.9473 47.3077 40.966C47.3077 40.7883 47.3015 40.612 47.291 40.4369H48.4356C49.2997 40.4369 50 39.7808 50 38.9713C50 38.1618 49.2996 37.5058 48.4356 37.5058Z" fill="white"/>
</svg>
