<svg width="50" height="50" viewBox="0 0 50 50" fill="none" xmlns="http://www.w3.org/2000/svg">
<path d="M44.03 15.6711C43.5915 15.2424 43.6002 14.5231 44.0714 14.1306L45.8452 12.6531C46.3251 12.2533 46.3252 11.5163 45.8453 11.1165L43.8725 9.47259C43.5017 9.16363 42.9632 9.16358 42.5924 9.47248L39.9308 11.6894C39.6061 11.9599 39.1474 11.9954 38.7776 11.7907C35.6623 10.0657 32.1199 8.94944 28.4157 8.52443C27.899 8.46515 27.5 8.03375 27.5 7.51367V5.16482C27.5 4.61254 27.9477 4.16482 28.5 4.16482H31.5C32.0523 4.16482 32.5 3.71711 32.5 3.16482V0.999999C32.5 0.447715 32.0523 0 31.5 0H18.5C17.9477 0 17.5 0.447715 17.5 1V3.16482C17.5 3.71711 17.9477 4.16482 18.5 4.16482H21.5C22.0523 4.16482 22.5 4.61254 22.5 5.16482V7.51367C22.5 8.03375 22.101 8.46515 21.5844 8.52443C17.8801 8.94944 14.3377 10.0657 11.2224 11.7907C10.8526 11.9954 10.3939 11.9599 10.0692 11.6894L7.40764 9.47248C7.0368 9.16358 6.49825 9.16363 6.12747 9.47259L4.15465 11.1165C3.6748 11.5163 3.67487 12.2533 4.15479 12.6531L5.9286 14.1306C6.39979 14.5231 6.4085 15.2424 5.97001 15.6711C3.09005 18.4868 1.15719 21.8963 0.381594 25.5514C-0.468427 29.5574 0.108773 33.6829 2.04192 37.4187C3.97506 41.1544 7.17947 44.3368 11.2594 46.5726C15.3394 48.8085 20.1162 50 25 50C29.8838 50 34.6606 48.8085 38.7406 46.5726C42.8205 44.3368 46.0249 41.1544 47.9581 37.4187C49.8912 33.6829 50.4684 29.5574 49.6184 25.5514C48.8428 21.8963 46.91 18.4868 44.03 15.6711ZM25 45.8131C21.0444 45.8131 17.1776 44.836 13.8886 43.0055C10.5996 41.1749 8.03617 38.5731 6.52242 35.529C5.00867 32.4849 4.6126 29.1353 5.38431 25.9037C6.15601 22.6721 8.06082 19.7037 10.8579 17.3739C13.6549 15.044 17.2186 13.4574 21.0982 12.8146C24.9778 12.1718 28.9991 12.5017 32.6537 13.7626C36.3082 15.0235 39.4318 17.1587 41.6294 19.8984C43.827 22.638 45 25.8589 45 29.1538C44.994 33.5706 42.885 37.805 39.1356 40.9282C35.3861 44.0513 30.3025 45.8081 25 45.8131Z" fill="white"/>
<path d="M25.9995 16.6872C25.4481 16.6565 25 17.1082 25 17.6604C25 21.611 25 24.2024 25 28.1529C25 28.7052 24.5522 29.1539 24 29.1539H11C10.4477 29.1539 9.99503 29.6026 10.0479 30.1524C10.2519 32.2717 11.1025 34.3185 12.5279 36.0954C14.1761 38.1502 16.5188 39.7516 19.2597 40.6973C22.0006 41.643 25.0166 41.8904 27.9263 41.4083C30.836 40.9262 33.5088 39.7362 35.6066 37.9888C37.7043 36.2414 39.133 34.0151 39.7117 31.5914C40.2905 29.1678 39.9935 26.6555 38.8581 24.3725C37.7228 22.0894 35.8002 20.138 33.3335 18.7651C31.1447 17.5469 28.6146 16.8326 25.9995 16.6872Z" fill="white"/>
</svg>
