<svg width="19" height="28" viewBox="0 0 19 28" fill="none" xmlns="http://www.w3.org/2000/svg">
<path d="M9.66667 0C4.52035 0 0.333313 4.18704 0.333313 9.33335C0.333313 10.8783 0.719571 12.4101 1.45386 13.7687L9.15627 27.6992C9.25881 27.8849 9.4542 28 9.66667 28C9.87913 28 10.0745 27.8849 10.1771 27.6992L17.8823 13.7641C18.6138 12.4101 19 10.8782 19 9.3333C19 4.18704 14.813 0 9.66667 0ZM9.66667 14C7.09351 14 5.00002 11.9065 5.00002 9.33335C5.00002 6.7602 7.09351 4.6667 9.66667 4.6667C12.2398 4.6667 14.3333 6.7602 14.3333 9.33335C14.3333 11.9065 12.2398 14 9.66667 14Z" fill="white"/>
</svg>
