<svg xmlns="http://www.w3.org/2000/svg" xmlns:xlink="http://www.w3.org/1999/xlink" width="2463" height="987">
	<path fill="#FEFEFE" transform="matrix(0.999865 0 0 1.00034 -368.284 -1106.31)" d="M2091.96 1631.97C2108.88 1631.95 2194.94 1628.67 2202.02 1636.62C2204.9 1639.85 2205.51 1643.25 2205.68 1647.41C2206.88 1675.86 2205.6 1704.94 2205.52 1733.44L2205 1905.77L2204.9 2001.16C2204.89 2018.08 2206.33 2036.82 2203.86 2053.55C2202.98 2059.52 2201.52 2061.39 2196.77 2065C2178.78 2068.31 2129.62 2067.96 2111.99 2064.69C2109.58 2064.24 2105.05 2063.7 2103.87 2061.43C2098.41 2050.89 2101.67 2028.09 2101.7 2015.85L2101.99 1896.82C2102.02 1877.02 2103.43 1855.99 2101.4 1836.3C2100.73 1829.81 2099.38 1821.55 2095.16 1816.27C2092.68 1813.17 2089.62 1811.41 2085.56 1811.35C2080.21 1811.27 2074.75 1816.07 2071.16 1819.57C2057.15 1833.21 2045.97 1850.78 2033.42 1865.84C1993.2 1914.09 1954.14 1963.44 1914.56 2012.21C1892.29 2013.6 1868.84 2013.88 1846.65 2011.57C1827.79 1994.89 1812.36 1970.11 1797.1 1950.1L1722.86 1853.84C1711.95 1839.68 1700.63 1821.6 1687.1 1809.98C1683.83 1807.18 1679.32 1805.34 1675.13 1804.45C1670.67 1803.51 1667.89 1804.44 1664.06 1806.8C1656.72 1816.29 1658.34 1828.68 1658.28 1840.08L1657.97 1999.37C1657.89 2015.48 1660.58 2033.23 1659.09 2049.05C1658.72 2052.94 1657.59 2057.55 1654.85 2060.51C1650.31 2065.4 1644.31 2066.84 1637.87 2067.23C1624.31 2068.03 1565.82 2069.18 1556.89 2061.4C1555.6 2055.31 1555.22 2049.46 1555 2043.26C1551.94 1958.5 1554.27 1872.28 1554.67 1787.37Q1554.98 1744.06 1554.74 1700.74C1554.66 1683.77 1553.59 1666.09 1554.88 1649.2C1555.23 1644.55 1555.27 1639.78 1558.58 1636.2C1578.83 1629.49 1658 1631.54 1682.8 1632.96C1702.27 1649.58 1723.17 1682.33 1739.14 1703.1L1835.75 1828C1848.1 1844.05 1862.17 1867.68 1878.54 1879.29C1882.84 1879.82 1884.26 1878.65 1887.52 1875.82C1905.81 1859.94 1923.49 1833.88 1939.03 1814.82L2040.37 1690.19C2050.97 1676.96 2076.86 1639.66 2089.65 1633.04C2090.4 1632.65 2091.19 1632.33 2091.96 1631.97Z"/>
	<path fill="#FEFEFE" transform="matrix(0.999865 0 0 1.00034 -368.284 -1106.31)" d="M1201.69 1633.53C1256.61 1632 1313.13 1631.53 1367.97 1635.46C1409.07 1638.41 1459.09 1641.77 1487.48 1675.93C1497.71 1688.25 1502.97 1702.48 1505.59 1718.05C1510.37 1746.45 1509.14 1776.18 1509.33 1804.9Q1509.77 1869.81 1509.32 1934.73L1508.1 2015.24C1507.92 2025.5 1509.2 2036.35 1508.14 2046.48C1507.48 2052.83 1505.8 2059.83 1500.18 2063.64C1492.63 2068.76 1415.15 2067.13 1403.86 2064.73C1400.88 2064.1 1396.77 2062.95 1395.38 2060.02C1385.98 2040.15 1400.81 1930.57 1389.45 1912.54C1375.61 1904.42 1332.51 1908.48 1315.68 1908.6C1287.18 1908.68 1147.33 1905.23 1130.72 1912.85C1116.37 1919.42 1132.69 2040.98 1124.79 2056.29C1122.23 2061.25 1118.79 2063.76 1113.53 2065.19C1101.82 2068.36 1026.03 2067.3 1016.8 2061.9C1014.03 2054.88 1013.63 2047.41 1013.36 2039.93C1010.26 1953.92 1007.42 1867.44 1010.84 1781.39C1011.79 1757.38 1011.6 1730.41 1016.96 1706.98C1020.25 1692.63 1027.04 1679.03 1037.32 1668.42C1073.29 1631.34 1153.05 1635.15 1201.69 1633.53ZM1207.18 1739.71C1186.32 1741.36 1152.36 1740.6 1137.67 1757.28C1123.63 1773.22 1126.45 1801.83 1126.98 1821.64C1189.42 1823.83 1252.24 1822.33 1314.73 1822.21C1330.76 1822.27 1379.12 1826.29 1391.7 1818.39C1397.45 1808.18 1393.85 1787.68 1390.73 1776.59C1387.82 1766.26 1383.92 1755.29 1373.92 1750.07C1343.64 1734.28 1243.07 1737 1207.18 1739.71Z"/>
	<path fill="#FEFEFE" transform="matrix(0.999865 0 0 1.00034 -368.284 -1106.31)" d="M900.084 1632.03C913.816 1631.95 940.41 1627.73 952.579 1634.37C958.939 1637.85 962.069 1644.61 963.532 1651.44C966.858 1666.97 968.153 1721.7 958.991 1733.68C955.199 1738.64 949.55 1739.67 943.683 1740.29C922.064 1742.58 898.153 1740.46 876.297 1740.56L720.045 1741.44C685.402 1741.54 649.197 1739.65 614.811 1744.02C577.59 1748.76 541.016 1764.51 517.868 1795.14C503.084 1814.7 495.728 1839.74 499.52 1864.14C503.469 1889.54 518.246 1910.41 538.642 1925.32C559.08 1940.25 583.634 1950.59 608.438 1955.47C631.964 1960.09 812.37 1961.01 838.311 1956.54C843.874 1955.59 847.328 1953.42 850.246 1948.64C855.047 1940.77 856.434 1929.45 854.11 1920.57C852.633 1914.92 849.847 1910.59 844.143 1908.46C830.438 1903.34 809.397 1905.92 794.68 1905.83C772.018 1905.69 635.507 1908.7 624.815 1899.84C619.395 1895.35 618.243 1882.29 617.786 1875.94C616.494 1857.97 613.28 1812.52 625.187 1798.84C644.731 1793.34 688.202 1796.65 710.556 1796.64L877.734 1796.65C891.536 1796.81 947.234 1793.53 955.844 1798.27C961.323 1801.28 963.344 1805.73 964.59 1811.56C968.537 1830.03 965.232 1866.1 965.279 1886.89L965.552 1983.12C965.601 2001.54 966.451 2020.46 964.959 2038.82C964.312 2046.79 963.222 2054.8 958.964 2061.68C947.98 2065.93 936.303 2066.43 924.657 2066.66C869.925 2067.73 815.056 2067.13 760.308 2067.3C700.778 2067.48 624.81 2072.53 567.802 2057.67Q563.676 2056.58 559.586 2055.36Q555.496 2054.14 551.446 2052.79Q547.397 2051.44 543.393 2049.97Q539.389 2048.49 535.433 2046.89Q531.478 2045.29 527.575 2043.56Q523.672 2041.83 519.826 2039.98Q515.98 2038.13 512.195 2036.16Q508.409 2034.19 504.688 2032.1Q500.967 2030.01 497.314 2027.8Q493.661 2025.6 490.08 2023.28Q486.499 2020.95 482.993 2018.52Q479.488 2016.09 476.061 2013.54Q472.634 2011 469.29 2008.35Q465.946 2005.7 462.687 2002.94Q459.428 2000.18 456.259 1997.33Q453.089 1994.47 450.012 1991.51C411.303 1954.01 389.794 1907.04 389.048 1853.08C388.259 1796.08 410.587 1746.59 450.431 1706.2C480.728 1675.49 522.631 1652.55 564.354 1641.89C615.842 1628.74 673.127 1632.67 726.002 1632.52L900.084 1632.03Z"/>
	<path fill="#FEFEFE" transform="matrix(0.999865 0 0 1.00034 -368.284 -1106.31)" d="M1364.27 1128.89L1630.31 1128.26C1674.79 1128.26 1748.06 1124.06 1788.8 1133.58C1815.47 1139.82 1839.26 1153.63 1858.88 1172.72C1884.88 1198.02 1900.35 1230.97 1900.81 1267.39C1901.31 1307 1888.53 1343.68 1860.39 1372.04C1810.41 1422.42 1756.5 1418.56 1691.02 1418.79C1654.47 1418.95 1502.16 1413.98 1478.78 1423.57C1444.51 1437.62 1445.65 1468.01 1445.66 1499.39Q1445.57 1523.74 1446.34 1548.07C1446.63 1557.43 1448.4 1569.13 1444.32 1577.79C1441.96 1582.79 1437.58 1585.98 1432.42 1587.72C1419.79 1591.96 1339.84 1591.53 1329.89 1585.46C1327.14 1583.79 1326.73 1581.19 1325.95 1578.21C1319.14 1552.3 1322.11 1522.44 1322.1 1495.78L1322.16 1389.85C1322.21 1317.24 1319.46 1243.32 1323.08 1170.91C1323.63 1159.91 1323.4 1140.22 1329.02 1130.6C1339.53 1127.35 1353.22 1128.85 1364.27 1128.89ZM1591.55 1175.59C1544.41 1180.04 1496.56 1192.74 1464.71 1230.58C1453.94 1243.38 1446.16 1259.35 1447.45 1276.43C1449.03 1297.37 1462.49 1314.96 1478.29 1327.76C1522.76 1363.79 1578.08 1371.45 1633.52 1368.92C1678.49 1365.66 1727.29 1350.89 1757.82 1315.61C1769.43 1302.2 1777.16 1285.1 1776.13 1267.08C1774.97 1246.79 1761.64 1228.82 1746.61 1216.07C1703.92 1179.86 1645.19 1173.85 1591.55 1175.59Z"/>
	<path fill="#F20B78" transform="matrix(0.999865 0 0 1.00034 -368.284 -1106.31)" d="M1597.47 1216.15C1610.56 1214.75 1622.78 1215.06 1635.06 1220.37C1647.54 1225.76 1657.53 1235.3 1662.11 1248.24C1667.15 1262.48 1665.21 1278.42 1658.56 1291.8C1651.65 1305.71 1640.8 1315.23 1626.29 1320.4C1615.22 1321.85 1605.29 1322.67 1594.5 1318.83Q1593.21 1318.36 1591.95 1317.83Q1590.69 1317.3 1589.45 1316.7Q1588.22 1316.11 1587.02 1315.45Q1585.81 1314.79 1584.65 1314.08Q1583.48 1313.36 1582.35 1312.58Q1581.22 1311.81 1580.13 1310.97Q1579.04 1310.14 1578 1309.26Q1576.95 1308.37 1575.96 1307.43Q1574.96 1306.49 1574.01 1305.5Q1573.06 1304.51 1572.16 1303.48Q1571.26 1302.44 1570.42 1301.36Q1569.58 1300.29 1568.79 1299.16Q1568 1298.04 1567.27 1296.88Q1566.54 1295.72 1565.87 1294.53Q1565.2 1293.33 1564.59 1292.1Q1563.98 1290.88 1563.44 1289.62C1557.52 1276.18 1556.82 1260.55 1562.5 1246.9C1569.18 1230.82 1581.83 1222.18 1597.47 1216.15Z"/>
	<path fill="#FEFEFE" transform="matrix(0.999865 0 0 1.00034 -368.284 -1106.31)" d="M2268.39 1633.27C2293.11 1631.07 2318.73 1632.39 2343.55 1632.45L2462.29 1632.45L2656.4 1632.66C2695.33 1632.61 2734.55 1631.54 2773.45 1632.64C2780.41 1632.83 2790.91 1632.69 2796.97 1636.18C2803.68 1640.05 2805.81 1652.47 2806.46 1659.36C2808.2 1677.78 2810.49 1719.22 2797.85 1733.57C2793.78 1738.2 2790.22 1738.87 2784.31 1739.61C2754.06 1743.4 2717.07 1740.46 2686.18 1740.56L2487.35 1741.27C2451.04 1741.4 2413.62 1739.69 2377.47 1742.66C2372.26 1745.82 2367.4 1748.87 2363.98 1754.07Q2363.68 1754.52 2363.41 1754.99Q2363.13 1755.46 2362.88 1755.94Q2362.63 1756.42 2362.41 1756.91Q2362.18 1757.4 2361.98 1757.9Q2361.78 1758.41 2361.6 1758.92Q2361.43 1759.43 2361.28 1759.95Q2361.13 1760.47 2361.01 1761Q2360.88 1761.53 2360.79 1762.06Q2360.69 1762.59 2360.62 1763.13Q2360.55 1763.67 2360.51 1764.21Q2360.47 1764.75 2360.45 1765.29Q2360.44 1765.83 2360.45 1766.37Q2360.46 1766.91 2360.5 1767.45Q2360.54 1767.99 2360.61 1768.53Q2360.67 1769.07 2360.77 1769.6Q2360.86 1770.13 2360.98 1770.66C2363.59 1782.07 2372.43 1788.65 2381.94 1794.25C2435.08 1795.97 2729.25 1788.98 2754.12 1799.94C2760.86 1807.11 2762.62 1815.22 2763.06 1824.91C2763.95 1844.22 2766.94 1884.02 2753 1898.31C2749.27 1902.13 2745.22 1903.56 2740.07 1904.38C2722.13 1907.26 2701.92 1905.49 2683.7 1905.52L2577.73 1905.64L2462.88 1905.5C2438.95 1905.37 2414.65 1904.39 2390.75 1905.53C2381.64 1905.96 2371.05 1907.02 2364.83 1914.58C2360.86 1919.41 2360.02 1925.74 2360.89 1931.76C2362.68 1944.31 2368.31 1950.75 2378.3 1957.9C2412.65 1960.06 2448.01 1958.25 2482.45 1958.27L2686.33 1958.63C2716.5 1958.71 2747.89 1957.06 2777.95 1959.41C2784.12 1959.89 2794.73 1960.49 2799.28 1965.14C2805.94 1971.93 2807.46 1985.73 2807.66 1994.69C2808.02 2010.24 2809.72 2052.29 2797.05 2062.14C2792.04 2066.04 2781.99 2066.32 2775.84 2066.53C2745.8 2067.55 2715.45 2066.57 2685.38 2066.62L2506.52 2067.05L2354.67 2066.88C2333.15 2066.79 2287.41 2069.44 2269 2064.02C2262.12 2062 2257.04 2057.37 2254.16 2050.82C2248.22 2037.31 2250.05 1709.2 2251.57 1670.09C2251.87 1662.5 2251.32 1650.03 2254.98 1643.22C2258.19 1637.26 2262.42 1635.47 2268.39 1633.27Z"/>
	<path fill="#FEFEFE" transform="matrix(0.999865 0 0 1.00034 -368.284 -1106.31)" d="M1959.42 1128.74C1976.19 1128.44 2035.47 1124.66 2047.52 1133.9C2051.07 1136.62 2052.56 1141.94 2053.19 1146.17C2054.58 1155.63 2053.64 1165.77 2053.57 1175.31C2053.37 1205.02 2050.27 1243.15 2054.18 1271.97C2055.66 1282.82 2059.69 1293.75 2069.01 1300.24C2073.88 1303.64 2079.48 1305.26 2085.33 1305.9C2108.22 1308.39 2131.96 1307.33 2154.98 1307.28L2256.67 1307.24L2341.57 1307.17C2357.11 1307.13 2375.72 1308.77 2390.76 1305.39C2400.19 1303.27 2407.94 1295.69 2411.25 1286.71C2420.27 1262.25 2409.57 1149.3 2417.2 1139.16C2421.15 1133.91 2427.74 1131.5 2433.96 1130.21C2450.66 1126.74 2504.71 1126.1 2518.41 1134.82C2523.14 1141.72 2523.42 1149.43 2523.61 1157.58C2524.14 1179.4 2523.16 1201.41 2523.24 1223.28C2523.47 1284.91 2523.66 1337.51 2471.72 1380.19C2451.12 1397.12 2424.7 1406.36 2406.37 1425.99L2404.91 1427.58C2392.28 1478.59 2400.02 1508.6 2358.71 1549.36C2343.58 1564.3 2322.19 1581.42 2301.25 1587C2275.5 1593.87 2207.37 1590.58 2177.61 1590.66L1925.78 1590.75L1653.9 1590.44C1622.72 1590.38 1548.48 1594.07 1520.86 1587.16C1516.76 1586.14 1516.01 1586.03 1514 1582.02C1509.28 1572.6 1507.8 1495.01 1512.55 1486.1C1515.9 1479.83 1522.67 1477.78 1529.25 1477.04C1545.56 1475.21 1563.58 1477.14 1580.11 1477.03L1708.74 1476.8L2119.57 1477.08C2145.03 1477.01 2238.18 1480.26 2254.04 1472.86C2260.95 1469.63 2267.7 1462.6 2270.06 1455.29C2272.21 1448.67 2271.66 1440.03 2268.39 1433.86C2263.51 1424.67 2252.4 1419.96 2242.71 1418.06C2228.83 1415.35 2213.76 1416.36 2199.67 1416.31C2152.57 1416.13 2088.42 1421.49 2044.31 1405.91C2005.94 1392.36 1975.11 1362.85 1957.67 1326.38C1951.38 1313.21 1948.74 1300.7 1946.85 1286.28C1943.79 1263 1941.35 1157.63 1949.23 1138.1C1951.45 1132.59 1954.35 1130.97 1959.42 1128.74Z"/>
	<path fill="#FEFEFE" transform="matrix(0.999865 0 0 1.00034 -368.284 -1106.31)" d="M793.806 1128.67C824.639 1126.65 856.33 1128.06 887.243 1128.12L1054.13 1128.45L1165.32 1128.7C1188.37 1128.77 1214.08 1126.94 1236.75 1131.2C1240.96 1132 1243.18 1133.62 1245.21 1137.44C1251.95 1150.15 1252.6 1210.7 1247.9 1225.08C1246.06 1230.68 1241.64 1237.37 1235.93 1239.61C1216.55 1247.22 1159.53 1243.83 1137.09 1243.93L908.526 1244.72C889.258 1244.78 869.942 1245.22 850.68 1244.88C839.192 1244.68 827.439 1243.37 815.971 1244.1C810.849 1244.43 805.873 1245.68 801.416 1248.28C792.888 1253.25 790.108 1261.67 787.645 1270.68L787.063 1272.87C789.098 1280.98 790.849 1291.5 798.867 1295.92C804.438 1298.99 811.184 1300.02 817.446 1300.58C847.528 1303.28 878.989 1301.52 909.21 1301.51L1074.16 1301.61C1105.19 1301.65 1140.31 1298.73 1170.59 1305.9C1191.88 1310.94 1210.41 1321.23 1227.17 1335.19Q1228.53 1336.31 1229.87 1337.46Q1231.2 1338.61 1232.5 1339.79Q1233.81 1340.97 1235.08 1342.19Q1236.36 1343.41 1237.6 1344.65Q1238.84 1345.9 1240.06 1347.18Q1241.27 1348.46 1242.45 1349.77Q1243.62 1351.08 1244.77 1352.42Q1245.92 1353.75 1247.03 1355.12Q1248.14 1356.49 1249.21 1357.88Q1250.29 1359.28 1251.33 1360.7Q1252.37 1362.12 1253.38 1363.56Q1254.38 1365.01 1255.35 1366.48Q1256.32 1367.95 1257.25 1369.45Q1258.18 1370.95 1259.07 1372.46Q1259.96 1373.98 1260.82 1375.52Q1261.67 1377.06 1262.49 1378.63Q1263.3 1380.19 1264.08 1381.77Q1264.85 1383.35 1265.59 1384.95Q1266.32 1386.55 1267.02 1388.17Q1267.71 1389.79 1268.37 1391.43Q1269.02 1393.06 1269.63 1394.71Q1270.24 1396.36 1270.81 1398.03Q1271.38 1399.7 1271.91 1401.38Q1272.44 1403.06 1272.93 1404.75Q1273.41 1406.45 1273.85 1408.15Q1274.3 1409.86 1274.7 1411.57Q1275.1 1413.29 1275.45 1415.01Q1275.81 1416.74 1276.12 1418.47Q1276.43 1420.2 1276.7 1421.94Q1276.97 1423.69 1277.2 1425.43Q1277.42 1427.18 1277.6 1428.93Q1277.78 1430.68 1277.92 1432.44C1281.05 1469.77 1269.54 1508.99 1245 1537.54C1217.87 1569.1 1181.69 1586.7 1140.39 1589.62C1095.28 1591.65 1049.83 1590.54 1004.68 1590.39L830.016 1590.57C805.857 1590.56 710.296 1593.07 694.957 1588.95C690.544 1587.77 689.014 1586.49 687.018 1582.36C681.025 1569.97 680.378 1496.75 687.24 1482.87C689.563 1478.17 693.503 1477.81 698.325 1477.33C730.85 1474.12 775.694 1476.84 809.268 1476.79L1039.4 1476.15C1069.07 1476.05 1122.95 1479.72 1149.14 1471.57C1149.8 1471.37 1150.46 1471.15 1151.11 1470.93C1152.95 1469.1 1154.78 1467.16 1156.41 1465.13C1161.19 1459.17 1166.19 1447.34 1164.97 1439.47C1163.13 1427.74 1150.66 1421.77 1140.31 1419.36C1115.76 1413.64 1085.01 1416.52 1059.78 1416.49L877.589 1415.97C847.062 1415.83 813.107 1418.77 783.166 1413.27C766.408 1410.19 750.059 1402.24 736.079 1392.67C704.02 1370.73 680.571 1337.23 673.831 1298.72C667.358 1261.74 673.29 1221.68 695.173 1190.67Q696.25 1189.14 697.364 1187.64Q698.478 1186.14 699.629 1184.67Q700.78 1183.2 701.967 1181.75Q703.154 1180.31 704.377 1178.9Q705.599 1177.48 706.856 1176.1Q708.113 1174.72 709.403 1173.37Q710.694 1172.02 712.018 1170.7Q713.342 1169.38 714.698 1168.09Q716.053 1166.8 717.441 1165.55Q718.828 1164.3 720.246 1163.08Q721.664 1161.87 723.111 1160.68Q724.558 1159.5 726.035 1158.36Q727.511 1157.21 729.015 1156.1Q730.519 1154.99 732.05 1153.92Q733.581 1152.85 735.138 1151.82Q736.696 1150.78 738.278 1149.79Q739.86 1148.79 741.466 1147.84Q743.072 1146.88 744.702 1145.97Q746.331 1145.05 747.983 1144.18Q749.634 1143.3 751.307 1142.47Q752.979 1141.64 754.672 1140.84Q756.365 1140.05 758.076 1139.3Q759.788 1138.55 761.518 1137.85Q763.248 1137.14 764.994 1136.47Q766.741 1135.81 768.504 1135.19Q770.266 1134.57 772.044 1133.99Q773.821 1133.41 775.612 1132.88Q777.403 1132.35 779.207 1131.86Q781.011 1131.37 782.826 1130.93Q784.641 1130.48 786.467 1130.08Q788.293 1129.69 790.128 1129.33Q791.963 1128.98 793.806 1128.67Z"/>
</svg>
